<?xml version="1.0" encoding="utf-8"?>
<svg id="Layer_1" viewBox="0 0 120 30" preserveAspectRatio="xMinYMin" xmlns="http://www.w3.org/2000/svg" xmlns:bx="https://boxy-svg.com">
  <g transform="matrix(1.304312, 0, 0, 1.365527, 1.956225, 1.345415)">
    <g>
      <g>
        <rect x="3.867" y="9.896" width="12.267" height="8.159" rx="1.8" ry="1.8" style="fill: rgb(68, 68, 68);"/>
        <path d="M 12.727 5.032 C 12.727 4.19 12.135 3.507 11.405 3.507 L 8.607 3.507 C 7.874 3.507 7.281 4.19 7.281 5.032 L 7.281 7.769 L 7.274 7.769 L 7.274 10.445 L 5.709 10.445 L 5.709 7.746 L 5.719 7.746 L 5.719 4.028 C 5.719 2.877 6.652 1.944 7.803 1.944 L 12.207 1.944 C 13.358 1.944 14.291 2.877 14.291 4.028 L 14.291 10.461 L 12.726 10.461 L 12.726 7.762 L 12.727 7.762 Z" style="fill: rgb(68, 68, 68);"/>
      </g>
      <g transform="matrix(1, 0, 0, 1, -7.374, 7.996668)">
        <ellipse cx="17.375" cy="5.333" rx="1.041" ry="1.041" style="fill: rgb(255, 255, 255);"/>
        <path d="M 17.375 4.292 L 18.478 7.791 L 16.271 7.791 L 17.375 4.292 Z" style="fill: rgb(255, 255, 255);" bx:shape="triangle 16.271 4.292 2.207 3.499 0.5 0 1@4b2624a6"/>
      </g>
    </g>
  </g>
  <g id="remove_x5F_2" transform="matrix(0.888889, 0, 0, 0.883978, 67, 7)">
    <path d="M12.2,9.1l5.6-5.6c0.2-0.2,0.2-0.6,0-0.8l-2.4-2.4c-0.2-0.2-0.6-0.2-0.8,0L9.1,5.9L3.3,0.2&#10;&#9;&#9;c-0.2-0.2-0.6-0.2-0.8,0L0.2,2.5c-0.2,0.2-0.2,0.6,0,0.8L5.9,9l-5.7,5.7c-0.2,0.2-0.2,0.6,0,0.8l2.4,2.4c0.2,0.2,0.6,0.2,0.8,0&#10;&#9;&#9;l5.6-5.6l5.6,5.6c0.2,0.2,0.6,0.2,0.8,0l2.4-2.4c0.2-0.2,0.2-0.6,0-0.8L12.2,9.1z" style="fill: rgb(68, 68, 68); stroke-width: 0;"/>
  </g>
  <g transform="matrix(1.304312, 0, 0, 1.365527, 24.169018, -0.040076)">
    <g>
      <g transform="matrix(1, 0, 0, 1, 5.970357, 2.479256)">
        <rect x="3.867" y="9.896" width="12.267" height="8.159" rx="1.8" ry="1.8" style="fill: rgb(68, 68, 68);"/>
        <g transform="matrix(1, 0, 0, 1, -7.374, 7.996668)">
          <ellipse cx="17.375" cy="5.333" rx="1.041" ry="1.041" style="fill: rgb(255, 255, 255);"/>
          <path d="M 17.375 4.292 L 18.478 7.791 L 16.271 7.791 L 17.375 4.292 Z" style="fill: rgb(255, 255, 255);" bx:shape="triangle 16.271 4.292 2.207 3.499 0.5 0 1@4b2624a6"/>
        </g>
      </g>
      <path d="M 18.697 4.582 C 18.697 3.74 18.105 3.057 17.375 3.057 L 14.577 3.057 C 13.844 3.057 13.251 3.74 13.251 4.582 L 13.251 7.319 L 13.244 7.319 L 13.244 9.995 L 11.679 9.995 L 11.679 7.296 L 11.689 7.296 L 11.689 3.578 C 11.689 2.427 12.622 1.494 13.773 1.494 L 18.177 1.494 C 19.328 1.494 20.261 2.427 20.261 3.578 L 20.261 10.011 L 18.696 10.011 L 18.696 7.312 L 18.697 7.312 Z" style="fill: rgb(68, 68, 68);"/>
    </g>
  </g>
  <g>
    <rect x="99" y="5" width="16" height="4" style="fill: rgb(68, 68, 68);"/>
    <rect x="79.219" y="26.064" width="16" height="4" transform="matrix(0, 1, -1, 0, 141.064365, -74.219452)" style="fill: rgb(68, 68, 68);"/>
    <path d="M 99 5 L 103 9 L 95 9 L 99 5 Z" style="fill: rgb(68, 68, 68);" bx:shape="triangle 95 5 8 4 0.5 0 1@11eaee9a"/>
    <path d="M 98.024 14.143 L 102.024 18.143 L 94.024 18.143 L 98.024 14.143 Z" transform="matrix(0, 1, -1, 0, 129.143007, -77.024002)" style="fill: rgb(68, 68, 68);" bx:shape="triangle 94.024 14.143 8 4 0.5 0 1@ceda1035"/>
  </g>
</svg>